HIERARCHY
ROOT Hips
{
	OFFSET -351.999878 89.312279 572.954773
	CHANNELS 6 Xposition Yposition Zposition Zrotation Yrotation Xrotation 
	JOINT Spine
	{
		OFFSET 0.000000 8.814246 -2.080107
		CHANNELS 3 Zrotation Yrotation Xrotation
		JOINT Spine1
		{
			OFFSET -0.000000 8.844141 -0.000000
			CHANNELS 3 Zrotation Yrotation Xrotation
			JOINT Spine2
			{
				OFFSET 0.000000 11.682268 0.000000
				CHANNELS 3 Zrotation Yrotation Xrotation
				JOINT Spine3
				{
					OFFSET 0.000000 11.746700 0.000000
					CHANNELS 3 Zrotation Yrotation Xrotation
					JOINT Neck
					{
						OFFSET 0.000000 17.658264 -0.000000
						CHANNELS 3 Zrotation Yrotation Xrotation
						JOINT Neck1
						{
							OFFSET -0.000000 5.101515 -0.000000
							CHANNELS 3 Zrotation Yrotation Xrotation
							JOINT Head
							{
								OFFSET -0.000000 5.101515 -0.000000
								CHANNELS 3 Zrotation Yrotation Xrotation
								JOINT HeadEnd
								{
									OFFSET 0.000000 11.655085 0.000000
									CHANNELS 3 Zrotation Yrotation Xrotation
									End Site
									{
										OFFSET 0.000000 0.000000 0.000000
									}
								}
							}
						}
					}
					JOINT RightShoulder
					{
						OFFSET -2.625389 11.175210 0.000000
						CHANNELS 3 Zrotation Yrotation Xrotation
						JOINT RightArm
						{
							OFFSET 0.000000 10.434715 -0.000000
							CHANNELS 3 Zrotation Yrotation Xrotation
							JOINT RightForeArm
							{
								OFFSET -0.000000 29.628420 0.000000
								CHANNELS 3 Zrotation Yrotation Xrotation
								JOINT RightHand
								{
									OFFSET -0.000000 22.857611 0.000000
									CHANNELS 3 Zrotation Yrotation Xrotation
									JOINT RightHandThumb1
									{
										OFFSET -2.867323 3.959563 2.944291
										CHANNELS 3 Zrotation Yrotation Xrotation
										JOINT RightHandThumb2
										{
											OFFSET -0.000000 3.350399 0.000000
											CHANNELS 3 Zrotation Yrotation Xrotation
											JOINT RightHandThumb3
											{
												OFFSET 0.000000 3.756509 -0.000000
												CHANNELS 3 Zrotation Yrotation Xrotation
												JOINT RightHandThumb4
												{
													OFFSET -0.000000 3.147345 0.000000
													CHANNELS 3 Zrotation Yrotation Xrotation
													End Site
													{
														OFFSET 0.000000 0.000000 0.000000
													}
												}
											}
										}
									}
									JOINT RightHandIndex1
									{
										OFFSET -0.086752 10.030893 2.345280
										CHANNELS 3 Zrotation Yrotation Xrotation
										JOINT RightHandIndex2
										{
											OFFSET 0.000000 4.061090 -0.000000
											CHANNELS 3 Zrotation Yrotation Xrotation
											JOINT RightHandIndex3
											{
												OFFSET 0.000000 3.248873 -0.000000
												CHANNELS 3 Zrotation Yrotation Xrotation
												JOINT RightHandIndex4
												{
													OFFSET 0.000000 2.639709 -0.000000
													CHANNELS 3 Zrotation Yrotation Xrotation
													End Site
													{
														OFFSET 0.000000 0.000000 0.000000
													}
												}
											}
										}
									}
									JOINT RightHandMiddle1
									{
										OFFSET 0.104102 9.502952 0.006768
										CHANNELS 3 Zrotation Yrotation Xrotation
										JOINT RightHandMiddle2
										{
											OFFSET 0.000000 4.568727 -0.000000
											CHANNELS 3 Zrotation Yrotation Xrotation
											JOINT RightHandMiddle3
											{
												OFFSET -0.000000 3.654981 0.000000
												CHANNELS 3 Zrotation Yrotation Xrotation
												JOINT RightHandMiddle4
												{
													OFFSET 0.000000 2.741236 0.000000
													CHANNELS 3 Zrotation Yrotation Xrotation
													End Site
													{
														OFFSET 0.000000 0.000000 0.000000
													}
												}
											}
										}
									}
									JOINT RightHandRing1
									{
										OFFSET 0.086752 8.921708 -2.267442
										CHANNELS 3 Zrotation Yrotation Xrotation
										JOINT RightHandRing2
										{
											OFFSET 0.000000 4.061090 -0.000000
											CHANNELS 3 Zrotation Yrotation Xrotation
											JOINT RightHandRing3
											{
												OFFSET -0.000000 3.654981 0.000000
												CHANNELS 3 Zrotation Yrotation Xrotation
												JOINT RightHandRing4
												{
													OFFSET 0.000000 2.741236 -0.000000
													CHANNELS 3 Zrotation Yrotation Xrotation
													End Site
													{
														OFFSET 0.000000 0.000000 0.000000
													}
												}
											}
										}
									}
									JOINT RightHandPinky1
									{
										OFFSET -0.173504 7.976997 -4.467199
										CHANNELS 3 Zrotation Yrotation Xrotation
										JOINT RightHandPinky2
										{
											OFFSET 0.000000 3.350399 0.000000
											CHANNELS 3 Zrotation Yrotation Xrotation
											JOINT RightHandPinky3
											{
												OFFSET 0.000000 2.842763 -0.000000
												CHANNELS 3 Zrotation Yrotation Xrotation
												JOINT RightHandPinky4
												{
													OFFSET -0.000000 2.639709 -0.000000
													CHANNELS 3 Zrotation Yrotation Xrotation
													End Site
													{
														OFFSET 0.000000 0.000000 0.000000
													}
												}
											}
										}
									}
									JOINT RightForeArmEnd
									{
										OFFSET 0.000000 0.000000 0.000000
										CHANNELS 3 Zrotation Yrotation Xrotation
										End Site
										{
											OFFSET 0.000000 0.000000 0.000000
										}
									}
								}
								JOINT RightArmEnd
								{
									OFFSET 0.000000 0.000000 0.000000
									CHANNELS 3 Zrotation Yrotation Xrotation
									End Site
									{
										OFFSET 0.000000 0.000000 0.000000
									}
								}
							}
						}
					}
					JOINT LeftShoulder
					{
						OFFSET 2.625389 11.175210 -0.000000
						CHANNELS 3 Zrotation Yrotation Xrotation
						JOINT LeftArm
						{
							OFFSET -0.000000 10.813635 0.000000
							CHANNELS 3 Zrotation Yrotation Xrotation
							JOINT LeftForeArm
							{
								OFFSET -0.000000 28.724781 0.000000
								CHANNELS 3 Zrotation Yrotation Xrotation
								JOINT LeftHand
								{
									OFFSET 0.644384 25.716167 -0.328871
									CHANNELS 3 Zrotation Yrotation Xrotation
									JOINT LeftHandThumb1
									{
										OFFSET 2.867323 3.959563 2.944291
										CHANNELS 3 Zrotation Yrotation Xrotation
										JOINT LeftHandThumb2
										{
											OFFSET -0.000000 3.350399 0.000000
											CHANNELS 3 Zrotation Yrotation Xrotation
											JOINT LeftHandThumb3
											{
												OFFSET -0.000000 3.756509 -0.000000
												CHANNELS 3 Zrotation Yrotation Xrotation
												JOINT LeftHandThumb4
												{
													OFFSET 0.000000 3.100000 -0.000000
													CHANNELS 3 Zrotation Yrotation Xrotation
													End Site
													{
														OFFSET 0.000000 0.000000 0.000000
													}
												}
											}
										}
									}
									JOINT LeftHandIndex1
									{
										OFFSET 0.086752 10.030893 2.345280
										CHANNELS 3 Zrotation Yrotation Xrotation
										JOINT LeftHandIndex2
										{
											OFFSET -0.000000 4.061090 0.000000
											CHANNELS 3 Zrotation Yrotation Xrotation
											JOINT LeftHandIndex3
											{
												OFFSET 0.000000 3.248873 0.000000
												CHANNELS 3 Zrotation Yrotation Xrotation
												JOINT LeftHandIndex4
												{
													OFFSET 0.000000 2.639709 -0.000000
													CHANNELS 3 Zrotation Yrotation Xrotation
													End Site
													{
														OFFSET 0.000000 0.000000 0.000000
													}
												}
											}
										}
									}
									JOINT LeftHandMiddle1
									{
										OFFSET -0.104102 9.502952 0.006768
										CHANNELS 3 Zrotation Yrotation Xrotation
										JOINT LeftHandMiddle2
										{
											OFFSET 0.000000 4.568727 -0.000000
											CHANNELS 3 Zrotation Yrotation Xrotation
											JOINT LeftHandMiddle3
											{
												OFFSET 0.000000 3.654981 0.000000
												CHANNELS 3 Zrotation Yrotation Xrotation
												JOINT LeftHandMiddle4
												{
													OFFSET -0.000000 2.741236 -0.000000
													CHANNELS 3 Zrotation Yrotation Xrotation
													End Site
													{
														OFFSET 0.000000 0.000000 0.000000
													}
												}
											}
										}
									}
									JOINT LeftHandRing1
									{
										OFFSET -0.086752 8.921708 -2.267442
										CHANNELS 3 Zrotation Yrotation Xrotation
										JOINT LeftHandRing2
										{
											OFFSET -0.000000 4.061090 -0.000000
											CHANNELS 3 Zrotation Yrotation Xrotation
											JOINT LeftHandRing3
											{
												OFFSET 0.000000 3.654981 0.000000
												CHANNELS 3 Zrotation Yrotation Xrotation
												JOINT LeftHandRing4
												{
													OFFSET -0.000000 2.741236 -0.000000
													CHANNELS 3 Zrotation Yrotation Xrotation
													End Site
													{
														OFFSET 0.000000 0.000000 0.000000
													}
												}
											}
										}
									}
									JOINT LeftHandPinky1
									{
										OFFSET 0.173504 7.976997 -4.467199
										CHANNELS 3 Zrotation Yrotation Xrotation
										JOINT LeftHandPinky2
										{
											OFFSET 0.000000 3.350399 0.000000
											CHANNELS 3 Zrotation Yrotation Xrotation
											JOINT LeftHandPinky3
											{
												OFFSET -0.000000 2.842763 -0.000000
												CHANNELS 3 Zrotation Yrotation Xrotation
												JOINT LeftHandPinky4
												{
													OFFSET -0.000000 2.639709 -0.000000
													CHANNELS 3 Zrotation Yrotation Xrotation
													End Site
													{
														OFFSET 0.000000 0.000000 0.000000
													}
												}
											}
										}
									}
									JOINT LeftForeArmEnd
									{
										OFFSET 0.000000 0.000000 0.000000
										CHANNELS 3 Zrotation Yrotation Xrotation
										End Site
										{
											OFFSET 0.000000 0.000000 0.000000
										}
									}
								}
								JOINT LeftArmEnd
								{
									OFFSET 0.000000 0.000000 0.000000
									CHANNELS 3 Zrotation Yrotation Xrotation
									End Site
									{
										OFFSET 0.000000 0.000000 0.000000
									}
								}
							}
						}
					}
				}
			}
		}
	}
	JOINT RightUpLeg
	{
		OFFSET -11.289943 0.000000 0.000000
		CHANNELS 3 Zrotation Yrotation Xrotation
		JOINT RightLeg
		{
			OFFSET -0.000000 -38.200325 -0.000000
			CHANNELS 3 Zrotation Yrotation Xrotation
			JOINT RightFoot
			{
				OFFSET -0.000000 -39.900856 -0.000000
				CHANNELS 3 Zrotation Yrotation Xrotation
				JOINT RightToeBase
				{
					OFFSET 0.000000 0.000000 15.261641
					CHANNELS 3 Zrotation Yrotation Xrotation
					JOINT RightToeBaseEnd
					{
						OFFSET 0.000000 0.000000 7.370709
						CHANNELS 3 Zrotation Yrotation Xrotation
						End Site
						{
							OFFSET 0.000000 0.000000 0.000000
						}
					}
				}
				JOINT RightLegEnd
				{
					OFFSET 0.000000 0.000000 0.000000
					CHANNELS 3 Zrotation Yrotation Xrotation
					End Site
					{
						OFFSET 0.000000 0.000000 0.000000
					}
				}
			}
			JOINT RightUpLegEnd
			{
				OFFSET 0.000000 0.000000 0.000000
				CHANNELS 3 Zrotation Yrotation Xrotation
				End Site
				{
					OFFSET 0.000000 0.000000 0.000000
				}
			}
		}
	}
	JOINT LeftUpLeg
	{
		OFFSET 11.315661 0.000000 -0.000000
		CHANNELS 3 Zrotation Yrotation Xrotation
		JOINT LeftLeg
		{
			OFFSET 0.000000 -38.200325 0.000000
			CHANNELS 3 Zrotation Yrotation Xrotation
			JOINT LeftFoot
			{
				OFFSET 0.000000 -39.900856 -0.000000
				CHANNELS 3 Zrotation Yrotation Xrotation
				JOINT LeftToeBase
				{
					OFFSET 0.000000 0.000000 15.261641
					CHANNELS 3 Zrotation Yrotation Xrotation
					JOINT LeftToeBaseEnd
					{
						OFFSET -0.000000 0.000000 7.539996
						CHANNELS 3 Zrotation Yrotation Xrotation
						End Site
						{
							OFFSET 0.000000 0.000000 0.000000
						}
					}
				}
				JOINT LeftLegEnd
				{
					OFFSET 0.000000 0.000000 0.000000
					CHANNELS 3 Zrotation Yrotation Xrotation
					End Site
					{
						OFFSET 0.000000 0.000000 0.000000
					}
				}
			}
			JOINT LeftUpLegEnd
			{
				OFFSET 0.000000 0.000000 0.000000
				CHANNELS 3 Zrotation Yrotation Xrotation
				End Site
				{
					OFFSET 0.000000 0.000000 0.000000
				}
			}
		}
	}
}
MOTION
Frames: 4
Frame Time: 0.016667
-16.764282 81.136536 -0.050083 -5.252269 -9.171244 -11.798264 -1.243371 -0.052585 11.344049 -1.016824 -0.155698 5.396838 1.099291 -4.475251 4.688612 3.185091 -1.551791 3.363028 3.373805 2.637527 3.114852 1.029231 4.842050 -2.908307 -1.609569 -1.000015 -15.614807 0.000000 0.000000 0.000000 85.686020 0.659174 8.489973 61.856079 20.677263 2.773137 -1.485370 26.358778 79.212173 -44.449936 8.211792 7.240646 7.949505 -1.556163 41.090378 0.000000 -0.000000 -19.440001 0.000000 0.000000 -13.500000 -0.000000 -0.000000 -0.000000 -1.460926 -0.000000 4.294857 0.000000 -0.000000 0.000000 0.000000 0.000000 -0.000000 -0.000000 -0.000000 0.000000 -0.470616 0.000000 0.143522 0.000000 0.000000 -0.000000 0.000000 -0.000000 0.000000 0.000000 0.000000 -0.000000 3.005494 0.000000 -5.431640 2.103846 0.000000 -0.000000 2.103846 -0.000000 0.000000 0.000000 -0.000000 -0.000000 5.835437 0.000000 -12.073415 4.084806 0.000000 -0.000000 4.084806 -0.000000 0.000000 -0.000000 0.000000 -0.000000 0.000000 -0.000000 -0.000000 -0.000000 -0.000000 0.000000 -81.079063 -1.263351 7.544406 -67.611145 -25.439137 2.820459 -2.735188 -24.982086 65.707565 48.122681 -5.025116 1.421936 -2.331656 0.573872 43.810097 0.000000 0.000000 -5.760000 0.000000 -0.000000 -4.000000 0.000000 0.000000 0.000000 25.530388 0.000000 9.447413 -0.000000 -0.000000 -0.000000 0.000000 -0.000000 -0.000000 0.000000 -0.000000 -0.000000 23.955738 0.000000 3.367790 0.000000 -0.000000 0.000000 0.000000 0.000000 -0.000000 -0.000000 0.000000 0.000000 20.830463 -0.000000 -4.754044 0.000000 -0.000000 0.000000 0.000000 0.000000 0.000000 0.000000 0.000000 0.000000 16.818390 -0.000000 -12.814608 -0.000000 -0.000000 0.000000 -0.000000 -0.000000 0.000000 0.000000 0.000000 0.000000 -0.000000 0.000000 -0.000000 0.000000 0.000000 0.000000 -17.130060 6.212687 -9.228221 0.018305 0.033334 28.787380 -2.431089 -10.989453 15.613219 -1.020540 -0.490533 -24.589685 0.000000 -0.000000 -0.000000 -0.000000 0.000000 -0.000000 -0.000000 0.000000 -0.000000 18.067696 1.858320 -5.600048 1.203414 0.959530 51.438232 -12.361523 5.252113 -1.736293 0.612026 -2.778585 -21.324839 -0.000000 0.000000 -0.000000 0.000000 0.000000 -0.000000 0.000000 -0.000000 -0.000000 
-18.178932 81.388962 0.095158 -4.943475 -9.172399 -11.176800 -1.163500 -0.039044 10.558815 -1.028340 -0.124540 5.148814 0.963947 -4.197918 4.402486 2.714896 -1.459329 3.013514 3.393250 1.192212 3.884298 0.579389 3.096064 -2.609259 -1.478234 -1.076342 -15.321870 0.000000 0.000000 0.000000 85.816978 0.671161 8.909071 59.875309 20.886583 4.311375 -1.518496 25.769852 80.908920 -46.448227 6.554260 10.565247 8.844157 -1.663611 40.678265 -0.000000 -0.000000 -21.600000 -0.000000 0.000000 -15.000000 -0.000000 -0.000000 -0.000000 2.761908 0.000000 4.091657 1.933336 0.000000 -0.000000 1.933336 0.000000 0.000000 0.000000 0.000000 -0.000000 3.630242 0.000000 0.485050 2.541170 -0.000000 -0.000000 2.541170 0.000000 0.000000 0.000000 -0.000000 -0.000000 7.094060 0.000000 -4.108526 4.965842 -0.000000 -0.000000 4.965842 0.000000 -0.000000 0.000000 -0.000000 -0.000000 9.556879 0.000000 -9.612751 6.689815 0.000000 -0.000000 6.689815 -0.000000 0.000000 -0.000000 -0.000000 0.000000 -0.000000 0.000000 -0.000000 -0.000000 -0.000000 0.000000 -81.067932 -1.225614 7.300531 -66.392120 -26.718714 3.302444 -2.785361 -24.873198 68.802818 48.503113 -5.323563 2.579529 -3.505965 0.824776 43.223774 0.000000 -0.000000 -8.640000 0.000000 -0.000000 -6.000000 -0.000000 -0.000000 -0.000000 20.035690 -0.000000 6.544394 -0.000000 0.000000 -0.000000 -0.000000 0.000000 -0.000000 -0.000000 0.000000 -0.000000 18.192417 -0.000000 2.019097 -0.000000 0.000000 -0.000000 -0.000000 0.000000 0.000000 -0.000000 0.000000 0.000000 14.333326 -0.000000 -4.087088 0.000000 0.000000 0.000000 -0.000000 0.000000 0.000000 -0.000000 0.000000 0.000000 10.244109 -0.000000 -9.888060 0.000000 -0.000000 -0.000000 0.000000 0.000000 0.000000 0.000000 0.000000 0.000000 -0.000000 0.000000 -0.000000 0.000000 0.000000 0.000000 -17.308365 5.679433 -8.176360 -0.035532 -0.073351 25.846426 -2.146183 -10.989406 16.007759 -1.009687 -0.373725 -24.900005 0.000000 -0.000000 -0.000000 -0.000000 0.000000 -0.000000 0.000000 0.000000 0.000000 18.532352 1.339539 -5.042038 1.274060 1.092739 49.387043 -13.275043 5.500147 -0.685574 0.751107 -2.886744 -21.283939 -0.000000 0.000000 -0.000000 0.000000 0.000000 -0.000000 0.000000 -0.000000 0.000000 
-19.660166 81.651596 0.212266 -4.744794 -9.102684 -10.620298 -0.906796 -0.039240 9.853276 -1.038760 -0.083738 4.961863 0.805789 -3.840477 4.145412 2.274572 -1.326944 2.621628 3.035230 -0.027100 4.540454 0.128731 1.480235 -2.370693 -1.409557 -1.101783 -14.948131 0.000000 0.000000 0.000000 85.941818 0.711316 9.728473 57.513000 21.610544 6.029512 -1.552709 25.097054 82.057671 -47.674103 5.695404 12.967148 9.740283 -1.758438 40.271706 -0.000000 -0.000000 -23.760000 0.000000 -0.000000 -16.500000 -0.000000 0.000000 -0.000000 8.112845 -0.000000 3.025660 5.678992 0.000000 -0.000000 5.678992 -0.000000 0.000000 0.000000 -0.000000 -0.000000 8.557602 0.000000 0.190757 5.990321 0.000000 0.000000 5.990321 -0.000000 -0.000000 -0.000000 -0.000000 -0.000000 11.535389 0.000000 -3.201038 8.074772 -0.000000 0.000000 8.074772 0.000000 -0.000000 -0.000000 -0.000000 0.000000 13.227880 0.000000 -7.239600 9.259516 -0.000000 -0.000000 9.259516 0.000000 -0.000000 -0.000000 -0.000000 0.000000 -0.000000 -0.000000 -0.000000 -0.000000 -0.000000 0.000000 -81.452156 -1.160238 7.206098 -65.110641 -27.550444 4.095634 -2.778456 -24.564114 72.380318 48.255798 -6.749649 3.312927 -5.276560 1.156666 42.357040 0.000000 -0.000000 -12.960000 -0.000000 0.000000 -9.000000 0.000000 -0.000000 0.000000 12.268094 -0.000000 2.584905 0.000000 0.000000 -0.000000 -0.000000 0.000000 0.000000 -0.000000 0.000000 0.000000 9.990851 0.000000 0.058764 0.000000 -0.000000 -0.000000 0.000000 0.000000 0.000000 0.000000 0.000000 0.000000 4.881643 -0.000000 -3.758053 0.000000 0.000000 0.000000 0.000000 0.000000 0.000000 0.000000 -0.000000 -0.000000 0.542949 0.000000 -7.514937 0.000000 -0.000000 -0.000000 0.000000 0.000000 0.000000 0.000000 0.000000 0.000000 -0.000000 -0.000000 0.000000 0.000000 -0.000000 0.000000 -17.083359 4.770781 -7.099385 -0.100922 -0.234552 23.283560 -1.500175 -10.979455 16.613026 -0.984010 -0.185391 -25.414595 0.000000 -0.000000 -0.000000 -0.000000 -0.000000 -0.000000 -0.000000 0.000000 -0.000000 19.064247 0.526607 -4.380173 1.320145 1.223907 47.173744 -14.204145 5.991113 0.393470 0.914558 -2.967848 -21.195843 -0.000000 0.000000 -0.000000 0.000000 0.000000 0.000000 -0.000000 -0.000000 0.000000 
-21.210825 81.909515 0.286664 -4.704321 -8.983235 -10.128742 -0.335707 -0.056153 9.365963 -1.043564 -0.038233 4.801670 0.592444 -3.388782 3.817018 1.741403 -1.142032 2.062309 2.387046 -0.683033 5.180279 -0.247848 0.486947 -2.085468 -1.412115 -1.157458 -14.563471 0.000000 -0.000000 0.000000 86.008507 0.758435 10.543181 55.138157 22.493891 8.263790 -1.602106 24.396126 82.061722 -48.566055 4.354034 14.359741 11.236528 -1.888869 39.607235 0.000000 -0.000000 -27.360001 -0.000000 0.000000 -19.000000 0.000000 0.000000 0.000000 15.558687 -0.000000 1.115678 10.891081 -0.000000 -0.000000 10.891081 -0.000000 -0.000000 0.000000 0.000000 -0.000000 15.556010 -0.000000 -0.776369 10.889208 0.000000 -0.000000 10.889208 -0.000000 0.000000 0.000000 0.000000 0.000000 18.193823 -0.000000 -2.989714 12.735677 -0.000000 0.000000 12.735677 0.000000 -0.000000 -0.000000 -0.000000 -0.000000 19.172005 -0.000000 -5.812684 13.420403 -0.000000 -0.000000 13.420403 -0.000000 -0.000000 -0.000000 0.000000 0.000000 -0.000000 -0.000000 -0.000000 -0.000000 -0.000000 0.000000 -82.186630 -1.049200 7.095819 -63.653130 -27.896662 5.281126 -2.668447 -23.776907 76.154068 48.119873 -8.727142 3.622467 -7.056543 1.435947 41.507744 0.000000 0.000000 -17.280001 -0.000000 0.000000 -12.000000 0.000000 -0.000000 0.000000 3.519908 0.000000 -3.891969 -0.000000 0.000000 0.000000 -0.000000 0.000000 0.000000 -0.000000 0.000000 0.000000 1.031141 0.000000 -4.150099 0.000000 0.000000 0.000000 0.000000 0.000000 0.000000 0.000000 0.000000 0.000000 -5.743573 0.000000 -5.145904 -4.020501 -0.000000 -0.000000 -4.020501 0.000000 -0.000000 0.000000 -0.000000 -0.000000 -10.825450 -0.000000 -6.588952 -7.577815 0.000000 0.000000 -7.577815 0.000000 -0.000000 0.000000 -0.000000 -0.000000 -0.000000 -0.000000 0.000000 0.000000 -0.000000 0.000000 -16.488846 3.856817 -6.193073 -0.223863 -0.570705 21.418962 0.305624 -10.775084 17.182552 -0.942941 0.246566 -26.191574 0.000000 -0.000000 -0.000000 -0.000000 0.000000 -0.000000 -0.000000 -0.000000 0.000000 19.767920 -0.464760 -3.663800 1.339579 1.344883 44.894550 -15.007149 6.613716 1.522287 1.076680 -3.005739 -21.027258 -0.000000 0.000000 -0.000000 -0.000000 0.000000 -0.000000 -0.000000 -0.000000 0.000000 
